# xmcd
#
# Track frame offsets:
#	150
#	15469
#	33584
#	46364
#	63296
#	77981
#	95845
#	110154
#	124727
#	144635
#	159075
#
# Disc length: 2304 seconds
#
# Revision: 1
# Processed by: cddbd v1.5.2PL0 Copyright (c) Steve Scherf et al.
# Submitted via: audiograbber 1.83.01
#
DISCID=9208fe0b
DTITLE=Cledus T Judd - Polyrically Uncorrect
DYEAR=2009
DGENRE=Country
TTITLE0=Polyrically Uncorrect (Feat. Ashton Shepherd)
TTITLE1=Garth Must Be Busy (Feat. Brooks and Dunn)
TTITLE2=(If I Had) Kellie Pickler's... (Feat. Jamie Johnson and Terry Eldredge Fr
TTITLE2=om The Grascals)
TTITLE3=Waitin' On Obama
TTITLE4=Cooter
TTITLE5=Washing Airplanes
TTITLE6=Tailgatin' (Feat. Colt Ford)
TTITLE7=Hard Time
TTITLE8=Merger On Music Row (Feat. Daryle Singletary)
TTITLE9=Dang It, I'm Vixen
TTITLE10=Christmas In Rehab
EXTD=
EXTT0=
EXTT1=
EXTT2=
EXTT3=
EXTT4=
EXTT5=
EXTT6=
EXTT7=
EXTT8=
EXTT9=
EXTT10=
PLAYORDER=
